<svg width="700" height="700" xmlns="http://www.w3.org/2000/svg" version="1.1">

 <g>
  <title>Layer 1</title>
  <g id="svg_70">
   <path stroke="null" id="svg_27" d="m467.28054,51.9807c11.64689,-0.3363 23.13039,1.73948 33.76429,5.96064c10.70618,4.25213 20.5083,10.61523 28.71618,18.81786c8.21184,8.20659 14.57891,17.99849 18.82989,28.70179c4.22771,10.62216 6.30102,22.10327 5.96445,33.74271l-25.08408,-0.68421c0.23982,-8.24518 -1.22232,-16.34787 -4.19296,-23.8192c-2.94361,-7.40256 -7.44591,-14.27569 -13.32134,-20.14687c-5.87553,-5.87177 -12.75295,-10.37476 -20.15975,-13.31283c-7.48076,-2.9726 -15.58793,-4.42996 -23.83839,-4.19414l-0.68464,-25.06805l0.00635,0.00229z"/>
   <path stroke="null" id="svg_28" fill-rule="evenodd" d="m509.60248,135.99584l61.90416,2.03329l-32.70773,55.21562l-29.19643,-57.24891z"/>
   <path stroke="null" id="svg_25" fill-rule="evenodd" d="m164.71241,212.56678l452.66601,0c14.38483,0 26.14757,11.75523 26.14757,26.1269l0,336.34848c0,14.37168 -11.76274,26.1269 -26.14757,26.1269l-452.66601,0c-14.38086,0 -26.14361,-11.75523 -26.14361,-26.1269l0,-336.34848c0,-14.37168 11.76274,-26.1269 26.14361,-26.1269zm1.02111,181.28123c7.5581,0 13.68474,6.12303 13.68474,13.676c0,7.55327 -6.12694,13.676 -13.68474,13.676c-7.5581,0 -13.68474,-6.12303 -13.68474,-13.676c0,-7.55327 6.12694,-13.676 13.68474,-13.676zm25.12666,-140.45115l407.73014,0l0,307.84856l-407.73014,0l0,-307.84856z"/>
   <path stroke="null" id="svg_26" fill-rule="evenodd" d="m45.46892,517.51168l0,-452.37678c0,-14.37168 11.7667,-26.1269 26.14757,-26.1269l336.55363,0c14.38086,0 26.14757,11.75523 26.14757,26.1269l0,157.60057l-39.95312,0l0,-138.81834l-308.04539,0l0,407.46962l50.61672,0l0,52.25875l-65.32733,0c-14.38086,0 -26.14757,-11.75523 -26.14757,-26.13086l0.00792,-0.00297z"/>
  </g>
 </g>
</svg>